<?xml version="1.0" standalone="no"?>
<!DOCTYPE svg PUBLIC "-//W3C//DTD SVG 20010904//EN"
 "http://www.w3.org/TR/2001/REC-SVG-20010904/DTD/svg10.dtd">
<svg version="1.0" xmlns="http://www.w3.org/2000/svg"
 width="1872.000000pt" height="1679.000000pt" viewBox="0 0 1872.000000 1679.000000"
 preserveAspectRatio="xMidYMid meet">

<g transform="translate(0.000000,1679.000000) scale(0.100000,-0.100000)"
fill="#000000" stroke="none">
<path d="M12230 13740 c-30 -3 -55 -9 -55 -15 0 -5 38 -16 85 -24 47 -7 87
-17 90 -21 3 -5 23 -11 45 -15 59 -10 198 -53 253 -78 l47 -21 -104 -12 c-57
-7 -126 -18 -153 -23 -63 -14 -156 -14 -254 0 -134 18 -292 -14 -467 -95 -122
-57 -298 -179 -401 -279 -155 -149 -269 -264 -278 -280 -16 -30 -1 -32 34 -5
32 23 89 59 191 119 26 16 47 25 47 21 0 -4 -46 -46 -103 -94 -191 -162 -344
-339 -471 -544 -32 -52 -56 -98 -52 -101 3 -3 57 44 120 105 74 73 149 134
217 178 57 37 106 71 109 75 9 13 192 95 229 102 30 6 28 3 -30 -39 -35 -26
-68 -51 -74 -58 -5 -6 -47 -42 -91 -79 -110 -91 -308 -298 -394 -413 -95 -126
-196 -289 -269 -437 -57 -115 -121 -267 -121 -288 0 -27 25 3 88 109 145 240
293 425 434 538 68 55 156 106 169 98 7 -4 -85 -145 -260 -399 -46 -66 -91
-133 -100 -148 -22 -40 -112 -173 -241 -362 -165 -240 -176 -255 -224 -320
-127 -170 -194 -281 -178 -297 5 -5 62 47 145 135 250 264 565 533 656 562 23
7 23 5 -10 -35 -144 -177 -204 -277 -286 -480 -35 -85 -70 -168 -78 -185 -8
-16 -28 -64 -44 -105 -27 -69 -98 -202 -137 -257 -15 -21 -15 -23 -1 -29 35
-13 215 159 267 254 8 15 43 70 76 122 34 52 89 142 123 200 61 105 124 190
134 180 3 -3 -1 -48 -9 -100 -16 -111 -19 -538 -4 -670 7 -63 6 -109 -4 -180
-24 -161 -70 -275 -239 -593 -28 -52 -33 -69 -23 -73 66 -25 231 203 314 436
28 78 39 113 87 285 31 111 38 50 39 -394 1 -320 -2 -430 -13 -476 -16 -70
-52 -184 -75 -237 -9 -21 -16 -40 -17 -43 0 -2 -15 -32 -34 -65 -47 -82 -26
-90 42 -14 29 32 53 62 53 66 0 5 16 30 35 57 60 84 123 231 176 417 5 17 9
44 9 61 0 37 24 63 34 37 3 -9 14 -91 22 -183 14 -142 15 -189 4 -326 -12
-162 -52 -361 -85 -425 -16 -30 -12 -56 6 -45 19 12 76 112 104 180 45 113 72
203 94 315 34 179 41 244 41 401 0 138 -4 170 -41 353 -32 155 -40 214 -35
257 11 112 46 138 46 35 0 -129 75 -390 153 -540 17 -32 32 -64 34 -70 1 -6
12 -38 23 -71 34 -97 20 -282 -40 -505 -13 -48 -13 -54 -2 -58 18 -6 81 104
107 187 30 97 33 135 40 491 5 239 13 316 29 264 3 -11 10 -66 16 -123 14
-126 41 -259 69 -328 38 -98 69 -238 81 -378 12 -136 10 -183 -16 -299 -11
-47 17 -27 49 35 46 89 76 193 97 343 23 158 33 387 19 424 -13 34 -2 67 17
51 8 -6 14 -17 14 -23 0 -16 139 -245 224 -371 69 -101 101 -155 92 -155 -3 0
4 -21 14 -46 52 -120 81 -463 51 -589 -28 -116 -31 -125 -61 -140 -77 -40
-149 -7 -195 91 -55 115 -56 259 -5 465 26 106 25 232 -1 237 -13 2 -18 -8
-22 -45 -8 -70 -10 -75 -46 -145 -18 -36 -59 -95 -92 -131 l-60 -66 -15 -112
c-16 -125 -28 -157 -64 -177 -27 -14 -91 -10 -132 9 -84 38 -74 210 25 406 28
55 15 65 -29 22 -80 -76 -131 -159 -179 -291 -36 -100 -58 -120 -136 -126 -36
-3 -70 0 -83 7 -30 17 -50 88 -42 151 4 30 3 50 -3 50 -31 0 -192 -219 -278
-380 -23 -41 -62 -111 -87 -155 -25 -44 -46 -84 -46 -88 0 -15 -69 -116 -128
-189 -70 -86 -150 -163 -210 -203 -39 -26 -50 -43 -36 -57 7 -8 120 61 214
130 96 71 178 150 298 285 135 153 274 247 465 313 71 24 124 23 134 -2 9 -25
-18 -84 -71 -151 -72 -94 -84 -108 -143 -175 -47 -51 -63 -78 -48 -78 9 0 149
102 180 131 17 15 68 58 115 95 47 37 108 89 137 116 56 52 88 68 134 68 51 0
86 -26 120 -90 49 -93 72 -105 198 -105 l104 0 13 -30 c26 -61 0 -103 -84
-136 -57 -22 -194 -88 -287 -139 -310 -169 -395 -213 -395 -205 0 15 36 73 80
129 48 61 146 137 303 237 56 36 77 54 77 70 0 16 -4 19 -17 14 -10 -4 -30
-10 -45 -13 -16 -2 -28 -8 -28 -12 0 -4 -29 -15 -64 -24 -89 -22 -231 -85
-303 -134 -78 -53 -166 -141 -244 -245 -132 -175 -140 -181 -451 -346 l-118
-62 0 28 c1 36 41 133 76 185 15 21 74 89 131 150 57 62 103 117 103 125 0 19
-31 16 -95 -8 -73 -27 -147 -87 -181 -146 -16 -27 -39 -63 -52 -81 -34 -45
-188 -158 -307 -224 -157 -88 -246 -137 -292 -160 -49 -25 -55 -38 -17 -38 43
0 294 89 398 141 54 28 101 47 104 44 6 -5 -20 -56 -65 -128 -19 -31 -41 -46
-111 -78 -48 -22 -89 -43 -92 -47 -3 -4 -29 -25 -58 -46 -66 -48 -72 -60 -79
-152 -3 -41 -12 -82 -19 -92 -12 -15 -13 -14 -14 15 0 59 -25 52 -60 -17 -48
-95 -127 -184 -178 -201 -30 -10 -37 -9 -56 10 -20 20 -21 32 -22 181 0 88 -3
163 -6 166 -3 3 -26 -18 -50 -46 -59 -67 -120 -190 -126 -251 -2 -27 -11 -54
-18 -60 -20 -16 -101 -5 -132 18 -55 41 -47 95 28 199 68 95 170 320 155 344
-10 16 -93 -37 -163 -105 -51 -48 -74 -81 -116 -164 -59 -119 -79 -134 -135
-100 -29 18 -31 22 -31 80 0 50 6 72 32 118 17 31 40 66 51 79 11 12 18 22 14
22 -12 0 78 77 123 105 61 38 300 217 380 284 70 60 71 61 217 231 99 117 249
264 291 288 22 12 23 12 17 -10 -25 -83 -80 -160 -150 -212 -14 -11 -17 -18
-9 -26 26 -26 200 136 294 274 59 89 144 275 171 376 37 141 36 495 -1 495 -8
0 -16 -9 -18 -20 -2 -11 -14 -64 -28 -117 -49 -195 -138 -344 -300 -503 -117
-115 -229 -252 -254 -311 -14 -31 -39 -57 -97 -100 -91 -68 -226 -195 -257
-240 -11 -17 -56 -74 -98 -125 -80 -97 -165 -174 -329 -297 -113 -85 -166
-151 -210 -265 -26 -69 -32 -96 -32 -172 -1 -76 2 -98 23 -140 47 -98 149
-229 166 -212 3 3 -1 32 -9 64 -29 115 13 83 84 -63 29 -61 60 -112 79 -128
28 -23 40 -26 113 -26 73 0 88 4 154 36 45 23 94 57 124 87 l49 51 0 -41 0
-42 38 5 c160 21 336 73 403 119 57 40 85 106 108 257 31 210 69 259 216 283
46 8 103 19 127 25 49 14 150 58 158 70 3 4 46 35 95 68 50 33 142 108 205
167 100 92 129 113 220 157 133 64 136 65 190 83 48 16 103 48 265 154 140 90
325 185 338 172 18 -18 -102 -187 -186 -264 -50 -45 -127 -96 -197 -132 -50
-26 -65 -45 -32 -45 24 0 210 65 289 100 36 17 103 55 149 85 46 30 86 55 88
55 3 0 31 16 63 35 32 19 66 35 75 35 16 0 16 -3 1 -37 -10 -24 -18 -83 -22
-160 -9 -174 -20 -186 -251 -263 -190 -64 -258 -98 -326 -166 -61 -60 -121
-160 -164 -277 -31 -84 -30 -183 3 -240 60 -101 122 -120 233 -68 36 17 69 31
71 31 3 0 3 -12 0 -27 -12 -61 52 -164 129 -209 56 -33 128 -32 194 1 l50 25
0 -30 c0 -47 39 -80 92 -80 75 0 225 82 304 168 l42 44 98 9 c107 9 155 19
194 39 30 15 160 104 245 166 171 126 321 216 383 229 36 8 44 35 10 35 -63 0
-192 -21 -244 -39 -32 -12 -59 -21 -60 -21 -1 0 -5 7 -8 16 -13 34 87 178 155
222 40 27 60 32 170 44 102 10 127 16 142 33 10 11 33 39 53 62 26 31 53 48
103 68 186 71 360 216 457 381 9 16 23 19 86 19 67 0 83 -4 150 -38 41 -21 97
-58 125 -83 29 -24 54 -40 57 -35 7 11 -46 113 -87 166 -50 65 -142 150 -228
210 -114 80 -119 86 -119 144 0 99 26 106 103 28 65 -67 110 -93 262 -152 66
-25 130 -50 143 -56 56 -23 55 -6 -8 126 -27 57 -50 107 -50 110 0 4 -21 39
-46 78 -50 79 -123 159 -136 151 -4 -3 15 -50 43 -104 27 -55 53 -115 56 -135
5 -31 3 -35 -15 -35 -26 0 -72 20 -72 32 0 4 -5 8 -11 8 -19 0 -230 143 -302
204 -65 55 -87 66 -87 46 0 -6 -60 -71 -132 -146 -136 -139 -168 -163 -493
-370 -49 -31 -119 -76 -155 -99 -36 -23 -107 -68 -157 -100 -83 -51 -109 -75
-85 -75 4 0 71 23 147 51 246 90 474 160 605 184 89 17 277 19 317 4 25 -9 26
-11 10 -21 -59 -32 -505 -163 -607 -178 -110 -16 -232 -54 -322 -102 -71 -38
-236 -163 -293 -223 -11 -12 -69 -63 -130 -115 -125 -107 -195 -172 -195 -182
0 -14 21 -9 48 11 15 10 44 24 65 32 20 7 37 16 37 21 0 23 270 80 362 76 l63
-3 -45 -32 c-25 -18 -49 -36 -55 -41 -36 -28 -95 -56 -176 -83 -52 -17 -117
-41 -144 -54 -61 -28 -201 -120 -312 -203 -152 -115 -277 -158 -339 -117 -23
15 -26 21 -20 57 10 61 63 133 175 240 57 54 101 102 99 107 -7 23 -211 -104
-283 -176 -25 -24 -61 -68 -80 -97 -35 -53 -68 -76 -108 -76 -84 1 -47 107 63
182 60 40 64 58 13 58 -60 0 -144 -27 -191 -60 -23 -16 -46 -30 -51 -30 -16 0
-39 36 -45 71 -12 67 28 138 90 161 18 6 31 15 29 19 -3 4 7 10 23 14 15 3 71
24 125 46 53 21 104 39 112 39 11 0 5 -20 -24 -77 -37 -73 -42 -93 -21 -93 4
0 53 50 107 112 250 283 295 352 432 652 78 171 138 273 170 294 26 16 26 14
-5 -61 -56 -130 -104 -328 -104 -423 0 -34 21 -27 33 12 84 269 270 545 454
672 64 45 171 91 249 107 65 13 111 15 259 10 204 -8 281 3 406 56 68 29 75
30 118 18 48 -13 116 -54 163 -97 36 -33 48 -21 19 18 -69 94 -131 268 -151
424 -5 39 -12 92 -16 119 -9 63 8 61 42 -5 24 -48 118 -150 219 -239 88 -77
190 -135 287 -163 101 -29 100 -15 -3 52 -90 59 -275 216 -323 275 -100 123
-168 315 -208 586 -7 47 -18 86 -23 88 -23 7 -111 -248 -136 -397 -11 -63 -24
-173 -29 -244 -6 -72 -13 -132 -15 -134 -3 -3 -7 4 -10 14 -4 10 -11 27 -16
37 -13 24 7 371 27 457 8 36 21 84 30 108 9 23 14 48 12 54 -6 16 -106 -119
-146 -198 -32 -60 -67 -99 -129 -142 -57 -40 -64 -30 -32 45 25 58 46 119 64
193 12 47 12 72 -1 175 -19 145 -11 233 32 367 12 37 -17 16 -57 -44 -53 -77
-56 -86 -173 -458 -36 -113 -59 -163 -189 -410 -36 -69 -81 -160 -99 -203 -29
-70 -33 -76 -39 -53 -4 14 -3 38 1 53 5 16 23 97 41 181 30 147 31 161 26 330
-4 152 -20 290 -43 361 -9 29 -22 -5 -29 -74 -3 -38 -12 -97 -20 -130 -7 -33
-16 -80 -20 -105 -4 -25 -15 -76 -26 -115 -11 -38 -22 -80 -25 -92 -6 -32 -69
-194 -95 -245 -27 -53 -118 -192 -153 -233 l-25 -30 15 55 c9 30 20 62 24 70
15 29 59 167 79 253 50 204 47 364 -11 586 -39 148 -54 245 -63 399 -6 91 -11
122 -21 122 -7 0 -16 -16 -20 -37 -3 -21 -15 -76 -27 -123 -24 -103 -25 -330
-2 -442 8 -38 15 -90 15 -116 0 -52 -21 -191 -44 -292 -33 -148 -140 -420
-158 -402 -5 5 -3 44 7 93 16 89 36 244 54 424 24 242 5 516 -50 723 -48 179
-119 470 -133 541 -7 37 -18 67 -26 69 -11 4 -12 -17 -7 -119 4 -68 14 -182
23 -254 19 -157 19 -255 -1 -378 -8 -51 -15 -96 -15 -101 0 -5 -9 -1 -20 9
-11 10 -20 24 -20 32 0 18 -49 86 -131 181 -36 43 -80 99 -98 125 -80 117
-189 387 -240 592 -32 130 -54 337 -48 453 3 56 2 102 -2 102 -32 0 -81 -301
-81 -490 0 -116 33 -474 56 -603 9 -53 -13 -41 -49 26 -94 171 -203 401 -233
488 -67 199 -79 489 -30 724 22 104 87 299 107 319 11 13 12 46 0 46 -10 0
-94 -97 -155 -180 -73 -99 -138 -243 -217 -483 -54 -161 -75 -214 -82 -202
-16 29 -2 557 17 660 42 226 71 356 122 559 31 125 51 223 46 228 -12 12 -112
-148 -173 -277 -83 -177 -156 -392 -194 -579 -18 -85 -54 76 -55 240 0 121 15
224 60 409 57 238 109 361 199 475 22 28 41 56 41 62 0 6 -108 -96 -240 -226
-132 -130 -245 -236 -250 -236 -16 0 5 36 116 197 111 162 370 437 479 508 33
21 65 45 70 52 27 33 273 149 426 199 44 15 78 32 76 37 -8 24 -170 48 -287
42 l-85 -4 62 30 c71 34 235 84 327 99 178 29 415 18 538 -26 57 -20 75 -19
57 3 -28 33 -585 291 -634 293 -5 0 -19 8 -30 16 -18 14 -5 15 145 9 276 -12
590 -90 820 -204 303 -151 326 -168 356 -251 69 -189 161 -297 327 -378 44
-22 79 -49 109 -85 62 -73 247 -304 282 -352 68 -92 169 -215 177 -215 5 0 9
5 9 10 0 19 -60 184 -76 208 -8 13 -14 32 -12 44 3 19 6 18 52 -14 42 -28 59
-50 106 -137 41 -77 65 -110 91 -127 20 -12 59 -48 87 -80 44 -49 52 -54 52
-35 0 76 -89 282 -165 380 -25 33 -86 97 -136 143 -49 46 -112 112 -138 148
-65 87 -151 222 -151 237 0 6 -10 29 -22 50 l-23 38 -3 -62 c-3 -62 -10 -75
-29 -50 -20 25 -25 67 -32 267 -6 192 -8 208 -30 248 -14 23 -34 48 -46 56
-59 39 -146 26 -197 -29 -17 -19 -35 -35 -39 -35 -5 0 -30 21 -56 46 -53 51
-193 171 -263 224 -25 19 -53 42 -63 51 -58 52 -304 179 -349 179 -22 0 -2
-23 60 -68 99 -72 194 -153 188 -160 -4 -3 -12 0 -18 6 -7 7 -18 12 -26 12 -8
0 -64 29 -126 64 -118 68 -284 142 -405 182 -41 13 -79 29 -86 34 -12 10 -110
34 -205 49 -74 13 -222 18 -290 11z m-1418 -5225 c2 -22 -1 -36 -9 -39 -9 -4
-11 2 -9 17 3 12 5 30 5 40 1 29 9 19 13 -18z m8 -97 c0 -29 -5 -82 -11 -118
-6 -36 -12 -74 -14 -85 -10 -64 -28 -126 -34 -116 -4 7 -8 -2 -8 -18 0 -16
-16 -63 -36 -105 -20 -41 -37 -78 -37 -82 0 -23 -97 -158 -164 -228 l-38 -41
19 35 c11 19 27 56 35 82 14 40 14 49 3 58 -8 7 -20 8 -27 4 -58 -36 -271
-252 -378 -383 -64 -79 -119 -131 -225 -216 -143 -115 -226 -175 -317 -232
-68 -43 -112 -86 -154 -150 -92 -143 -107 -216 -56 -271 16 -17 42 -34 57 -38
50 -12 75 12 132 126 51 104 65 121 173 213 75 63 75 51 5 -99 -23 -51 -63
-124 -88 -162 -90 -139 -95 -163 -44 -212 95 -93 190 -74 208 40 11 69 32 120
82 193 22 31 40 57 41 57 1 0 0 -47 -2 -106 -5 -123 8 -180 48 -219 26 -25 31
-26 65 -15 20 7 39 18 42 26 3 8 9 14 14 14 15 0 71 67 110 131 l36 59 13 -25
c18 -33 25 -32 54 13 19 28 25 52 27 102 3 87 16 109 88 150 34 19 71 43 83
53 12 9 25 18 30 18 4 1 11 2 16 3 4 0 24 11 44 23 43 25 88 83 131 170 45 91
32 97 -85 38 -51 -27 -102 -52 -112 -58 -21 -10 -207 -77 -215 -77 -14 0 26
24 119 73 239 124 368 222 451 341 70 101 88 119 105 105 12 -10 13 -8 8 6 -5
13 -4 16 4 11 7 -4 12 -3 12 3 0 6 9 15 20 21 16 8 24 8 35 -4 14 -13 7 -23
-55 -84 -38 -39 -70 -74 -70 -78 0 -5 -11 -19 -24 -31 -26 -25 -84 -135 -91
-174 -14 -69 -15 -85 -5 -99 6 -10 13 -11 18 -5 4 6 41 27 82 48 41 21 104 53
139 72 35 19 70 35 77 35 8 0 14 5 14 11 0 6 7 8 16 5 8 -3 13 -2 10 3 -7 10
42 33 55 26 5 -3 6 2 2 11 -4 10 -2 15 3 11 6 -3 27 10 48 29 20 19 40 34 44
34 4 0 -1 -7 -10 -14 -10 -7 -15 -16 -11 -19 3 -4 0 -7 -7 -7 -17 0 -4 -13 16
-16 11 -2 14 3 9 14 -5 13 -3 14 6 5 18 -18 3 -30 -36 -28 -19 2 -37 -1 -40
-5 -5 -7 71 -90 83 -90 2 0 11 8 18 18 10 13 13 14 14 3 0 -11 4 -9 15 5 8 10
15 14 15 8 0 -13 -30 -40 -39 -36 -3 1 -6 -2 -6 -7 0 -5 -4 -13 -9 -18 -5 -4
-6 -3 -3 3 4 6 -5 16 -18 22 -18 8 -25 9 -25 1 0 -8 -4 -8 -14 0 -11 9 -15 8
-20 -5 -4 -10 -2 -22 4 -28 8 -8 9 -6 5 7 -4 9 -3 17 3 17 15 0 21 -23 10 -43
-5 -10 -14 -15 -21 -11 -7 4 -9 4 -5 -1 4 -4 2 -15 -5 -24 -11 -14 -10 -14 6
-2 21 17 23 -2 1 -20 -13 -10 -17 -10 -25 2 -8 11 -9 9 -5 -6 5 -16 -6 -29
-50 -60 -31 -22 -62 -39 -70 -39 -7 1 -12 -2 -9 -6 5 -9 -54 -51 -107 -76 -21
-10 -38 -23 -38 -30 0 -6 -10 -14 -22 -17 -13 -3 -48 -15 -78 -25 -30 -11 -86
-23 -124 -27 -80 -7 -112 -21 -172 -77 -56 -52 -75 -114 -99 -317 -8 -62 -37
-124 -71 -148 -66 -47 -306 -123 -389 -123 -36 0 -36 0 -29 33 21 90 2 94 -63
12 -39 -48 -65 -68 -133 -103 -82 -42 -88 -44 -161 -40 -60 2 -82 8 -99 23
-23 21 -70 106 -70 127 0 13 -105 174 -119 183 -5 2 -14 -2 -21 -10 -9 -11 -8
-29 4 -82 l15 -68 -30 35 c-16 19 -48 72 -71 118 -48 95 -53 151 -23 262 30
114 98 235 148 265 35 21 155 111 184 139 11 12 57 53 100 91 44 39 101 98
127 132 27 34 59 74 72 88 13 14 24 29 24 33 0 4 30 37 68 74 95 93 107 104
139 125 83 53 134 104 157 158 13 28 29 57 37 65 8 8 35 40 60 71 60 73 262
274 272 271 5 -1 6 1 3 6 -9 15 67 109 84 105 13 -4 13 -3 0 6 -9 7 -11 14 -5
19 6 4 11 14 13 22 2 8 11 26 20 40 17 25 18 30 21 53 1 8 4 7 11 -3 12 -19
50 -23 43 -4 -2 7 -10 11 -18 8 -30 -12 -23 69 8 88 23 15 27 8 27 -44z m293
-323 c-3 -9 -8 -14 -10 -11 -3 3 -2 9 2 15 9 16 15 13 8 -4z m7 -49 c0 -8 -4
-18 -10 -21 -6 -3 -7 1 -4 9 6 17 -11 22 -20 7 -11 -17 6 -42 23 -36 12 5 13
4 4 -6 -10 -10 -15 -9 -28 1 -18 15 -20 46 -2 53 23 10 37 7 37 -7z m-56 -44
c3 -5 -1 -9 -9 -9 -8 0 -12 4 -9 9 3 4 7 8 9 8 2 0 6 -4 9 -8z m-34 -92 c-14
-20 -20 -39 -16 -53 4 -15 -3 -31 -22 -52 -26 -29 -26 -29 -1 -7 14 12 29 22
34 22 24 0 -195 -199 -285 -260 -26 -17 -19 -7 27 41 35 35 70 74 79 87 8 12
20 20 25 16 5 -3 8 -2 7 3 -5 15 57 93 70 88 7 -3 10 0 7 5 -7 11 39 113 64
142 26 30 36 3 11 -32z m47 -13 c6 -4 14 -1 16 5 4 9 6 9 6 1 1 -15 -58 -65
-70 -57 -17 10 -9 25 10 19 10 -3 24 1 31 10 12 14 10 15 -13 10 -15 -4 -27
-3 -27 2 0 21 22 26 47 10z m36 -358 c-8 -8 -13 -7 -18 2 -5 8 -4 10 3 5 7 -4
12 -2 12 5 0 7 3 9 7 6 4 -4 2 -12 -4 -18z m307 -143 c0 -2 -8 -10 -17 -17
-16 -13 -17 -12 -4 4 13 16 21 21 21 13z m54 -142 c3 -8 2 -12 -4 -9 -6 3 -10
10 -10 16 0 14 7 11 14 -7z m-89 -24 c3 -5 -1 -10 -9 -10 -9 0 -16 5 -16 10 0
6 4 10 9 10 6 0 13 -4 16 -10z m-40 -70 c7 -12 -23 -60 -38 -60 -6 0 0 11 13
25 13 14 18 25 12 25 -7 0 -12 5 -12 10 0 13 17 13 25 0z m553 -815 c-3 -3 -9
2 -12 12 -6 14 -5 15 5 6 7 -7 10 -15 7 -18z"/>
<path d="M10780 8431 c0 -6 4 -12 8 -15 5 -3 9 1 9 9 0 8 -4 15 -9 15 -4 0 -8
-4 -8 -9z"/>
<path d="M10777 8399 c7 -7 15 -10 18 -7 3 3 -2 9 -12 12 -14 6 -15 5 -6 -5z"/>
<path d="M11050 7511 c0 -6 4 -12 8 -15 5 -3 9 1 9 9 0 8 -4 15 -9 15 -4 0 -8
-4 -8 -9z"/>
<path d="M11248 7223 c7 -3 16 -2 19 1 4 3 -2 6 -13 5 -11 0 -14 -3 -6 -6z"/>
<path d="M11218 7203 c7 -3 16 -2 19 1 4 3 -2 6 -13 5 -11 0 -14 -3 -6 -6z"/>
<path d="M11230 7100 c0 -5 5 -10 11 -10 5 0 7 5 4 10 -3 6 -8 10 -11 10 -2 0
-4 -4 -4 -10z"/>
<path d="M11016 7922 l-19 -27 24 22 c12 12 21 24 18 27 -2 2 -13 -8 -23 -22z"/>
<path d="M10940 7769 c0 -5 5 -7 10 -4 6 3 10 8 10 11 0 2 -4 4 -10 4 -5 0
-10 -5 -10 -11z"/>
<path d="M10907 7744 c-3 -3 -3 -13 0 -22 5 -11 3 -13 -7 -7 -9 5 -11 4 -6 -4
10 -16 25 -4 23 19 -1 22 -1 22 -10 14z"/>
<path d="M12775 12903 c-55 -8 -185 -43 -238 -64 -76 -30 -219 -123 -264 -172
-63 -68 -130 -168 -153 -227 -11 -30 -25 -64 -29 -75 -25 -54 -55 -198 -67
-309 -5 -56 -4 -68 7 -64 8 2 65 74 127 159 143 196 163 221 168 216 5 -4 -19
-77 -41 -124 -8 -17 -31 -89 -51 -160 -42 -146 -54 -294 -35 -417 6 -39 13
-91 16 -116 12 -89 84 -312 104 -318 10 -4 12 2 8 24 -33 153 -31 345 3 514
28 132 92 312 107 297 2 -3 6 -68 8 -144 3 -140 15 -196 59 -281 27 -52 36
-38 36 58 0 137 45 251 112 286 41 21 85 18 102 -8 18 -28 24 -151 12 -260
-10 -92 -1 -99 45 -35 38 52 56 93 76 175 l16 63 -35 37 c-53 57 -82 100 -136
203 -124 233 -158 457 -82 542 27 31 32 32 119 35 75 3 107 -1 181 -22 82 -23
175 -63 204 -87 6 -5 72 -49 146 -98 149 -98 294 -216 441 -358 53 -51 98 -90
102 -87 3 3 -7 24 -23 47 -15 23 -42 74 -59 112 -17 39 -38 83 -47 98 -27 48
-13 59 63 55 43 -2 68 1 70 8 5 15 -43 56 -169 145 -56 41 -109 79 -115 85
-21 21 -178 103 -293 154 -187 83 -389 130 -495 113z"/>
<path d="M12860 12443 c-24 -9 -60 -45 -60 -60 0 -7 21 -28 47 -46 134 -91
165 -141 198 -312 10 -50 22 -94 26 -99 10 -11 178 61 180 78 1 6 1 34 0 61
-2 28 2 62 8 78 9 22 16 27 46 27 32 0 39 -5 70 -54 19 -30 43 -57 52 -60 37
-10 106 -11 110 0 13 37 -184 240 -273 281 -62 28 -77 23 -88 -27 -3 -17 -10
-30 -16 -30 -5 0 -34 24 -63 54 -94 96 -173 132 -237 109z"/>
<path d="M13965 12140 c-5 -8 71 -100 300 -365 80 -93 150 -179 155 -190 16
-34 110 -132 110 -114 0 9 -16 52 -36 95 -20 44 -46 102 -59 130 -13 28 -37
119 -53 203 -17 83 -35 158 -41 165 -7 8 -45 16 -94 20 -45 3 -126 19 -180 35
-54 15 -100 25 -102 21z"/>
<path d="M13383 11911 c-91 -77 -167 -160 -220 -241 -91 -138 -153 -331 -153
-474 0 -182 81 -421 207 -613 21 -32 45 -71 53 -87 8 -16 73 -89 143 -162 220
-229 276 -309 331 -479 34 -105 66 -293 75 -429 6 -108 21 -147 35 -91 38 152
58 515 35 639 -6 32 -8 60 -6 63 7 6 101 -43 150 -78 99 -72 198 -231 254
-409 25 -78 33 -113 47 -212 5 -32 12 -48 22 -48 12 0 14 33 14 199 0 110 -5
234 -11 276 -13 99 -8 117 27 84 81 -74 294 -345 294 -373 0 -13 117 -217 173
-301 75 -113 190 -257 250 -312 115 -106 307 -221 307 -184 0 6 -51 63 -112
127 -62 64 -117 123 -122 133 -5 9 -41 57 -80 106 -39 50 -85 110 -102 135
-40 58 -124 218 -154 295 -13 33 -31 74 -41 91 -20 37 -34 94 -22 94 32 -1
397 -354 505 -490 24 -30 65 -81 90 -113 26 -32 52 -71 60 -87 7 -17 19 -30
25 -30 16 0 17 -5 -7 69 -40 121 -93 231 -228 475 -60 108 -185 245 -314 346
-89 69 -103 75 -303 133 -133 38 -343 138 -553 264 -21 12 -50 29 -67 39 -43
24 -96 66 -91 71 2 2 39 0 82 -6 44 -6 97 -12 119 -15 22 -2 52 -7 68 -11 50
-13 30 24 -28 51 -59 27 -278 155 -290 169 -5 7 -40 33 -77 59 -116 81 -245
245 -284 361 -9 25 -20 45 -25 45 -14 0 -10 -117 6 -194 8 -38 13 -71 12 -73
-9 -8 -50 50 -90 127 -74 142 -125 318 -113 385 7 35 -5 53 -21 32 -19 -23
-32 -122 -30 -225 1 -56 -1 -102 -4 -102 -16 0 -38 42 -60 115 -20 66 -24 100
-23 200 0 123 9 163 72 330 29 78 163 276 226 334 27 25 33 41 17 41 -6 0 -36
-22 -68 -49z"/>
<path d="M15086 11484 c-3 -26 -6 -71 -6 -100 0 -30 -4 -54 -10 -54 -5 0 -62
41 -125 91 -64 50 -118 89 -120 87 -3 -2 31 -58 74 -124 162 -245 181 -281
181 -343 0 -154 -92 -297 -238 -372 -43 -22 -59 -24 -197 -24 -174 0 -248 13
-455 82 -74 24 -143 47 -152 50 -34 10 -18 -15 30 -49 72 -51 230 -143 299
-174 34 -15 60 -31 58 -34 -2 -4 10 -11 28 -17 75 -26 143 -35 209 -30 110 9
298 40 293 47 -3 4 21 13 53 19 31 6 62 15 69 19 6 4 21 44 32 90 12 47 41
122 69 175 50 94 79 184 68 214 -4 9 9 46 30 87 42 80 47 132 19 187 -36 70
-170 219 -197 219 -3 0 -8 -21 -12 -46z"/>
<path d="M14146 11281 c-21 -23 -20 -34 3 -55 17 -16 20 -16 35 -1 21 22 20
52 -3 64 -14 8 -22 6 -35 -8z"/>
<path d="M14440 11195 c-26 -31 13 -82 44 -56 22 18 20 48 -3 61 -25 13 -26
13 -41 -5z"/>
<path d="M14162 11128 c-16 -16 -15 -33 4 -48 22 -19 54 12 38 37 -14 22 -27
26 -42 11z"/>
<path d="M14640 11071 c-22 -42 22 -78 51 -42 10 12 15 30 12 41 -7 26 -49 27
-63 1z"/>
<path d="M13987 10982 c-21 -23 -21 -32 1 -48 26 -20 41 -17 54 11 8 19 8 28
-2 40 -17 20 -33 19 -53 -3z"/>
<path d="M14248 10969 c-35 -20 -11 -75 29 -67 13 2 18 13 18 38 0 37 -16 48
-47 29z"/>
<path d="M14647 10876 c-22 -17 -22 -29 1 -49 14 -13 21 -14 30 -5 29 29 1 77
-31 54z"/>
<path d="M14452 10854 c-29 -20 -28 -38 2 -58 23 -14 26 -14 40 0 37 37 0 88
-42 58z"/>
<path d="M15225 10459 c-48 -81 -60 -85 -52 -16 5 39 4 57 -4 57 -6 0 -36 -23
-66 -50 -154 -141 -366 -210 -606 -197 -62 3 -126 10 -143 15 -18 6 -37 6 -45
1 -11 -6 4 -26 61 -82 128 -125 270 -178 419 -157 85 12 213 76 291 148 105
94 190 235 190 314 0 30 -13 20 -45 -33z"/>
<path d="M9297 10091 c-54 -16 -117 -36 -140 -46 -260 -108 -514 -238 -807
-413 -69 -41 -134 -80 -145 -86 -48 -28 -118 -76 -110 -76 4 0 -79 -59 -186
-130 -272 -183 -509 -356 -549 -401 -13 -15 -130 -103 -285 -214 -199 -143
-755 -508 -1105 -725 -74 -46 -142 -91 -151 -100 -9 -9 -87 -58 -173 -110 -86
-52 -156 -100 -156 -107 0 -17 3 -17 60 12 27 13 66 31 87 39 58 21 347 156
353 165 3 4 115 60 250 125 135 65 281 137 325 161 44 24 112 60 150 80 232
122 562 329 717 448 27 21 52 36 55 33 12 -12 -98 -158 -189 -250 -54 -55 -98
-103 -98 -108 0 -28 90 7 186 73 79 54 504 462 504 483 0 18 325 350 413 422
45 37 97 82 114 100 56 54 370 257 588 379 158 88 342 188 403 219 40 20 72
41 72 46 0 18 -83 9 -183 -19z m103 -5 c0 -2 -26 -17 -57 -33 -335 -172 -830
-474 -946 -578 -10 -9 -53 -47 -95 -84 -134 -118 -340 -330 -453 -466 -110
-131 -360 -370 -465 -443 -28 -20 -124 -72 -132 -72 -3 0 23 30 59 68 90 93
141 158 199 251 78 125 67 132 -53 33 -91 -75 -93 -76 -227 -165 -158 -105
-378 -235 -555 -329 -183 -97 -767 -382 -777 -380 -5 1 -8 -2 -8 -6 0 -5 -12
-14 -27 -21 -32 -15 -56 1 -25 18 10 6 22 7 26 4 3 -3 6 0 6 8 0 9 19 26 41
40 77 45 107 64 131 82 12 10 47 32 75 50 165 101 348 221 351 228 2 5 8 9 14
9 5 0 94 57 196 127 103 70 228 154 277 188 103 70 187 129 230 162 17 13 35
27 40 31 6 4 41 29 78 56 37 27 85 66 107 87 56 55 221 175 480 348 124 82
235 159 247 171 21 21 37 31 228 146 212 128 503 279 691 360 107 46 244 96
244 89 0 -1 19 3 43 10 46 15 57 17 57 11z m-3610 -2246 c0 -11 -59 -44 -66
-37 -3 2 9 10 26 17 16 7 30 16 30 21 0 5 2 9 5 9 3 0 5 -4 5 -10z"/>
<path d="M5913 7923 c-18 -7 -16 -20 2 -20 8 0 15 6 15 14 0 7 -1 13 -2 12 -2
0 -9 -3 -15 -6z"/>
<path d="M9982 10019 c-310 -28 -626 -123 -909 -275 -98 -52 -123 -74 -87 -74
9 0 30 7 47 15 18 8 61 21 97 30 36 9 83 21 105 26 22 5 96 14 165 19 69 5
139 11 155 13 82 11 189 19 185 15 -7 -7 -181 -66 -205 -70 -11 -2 -20 -10
-20 -18 0 -21 112 -33 245 -26 113 5 155 16 265 66 39 18 95 39 125 46 117 29
463 28 603 -2 41 -9 33 8 -28 57 l-54 43 21 24 c36 38 16 53 -103 79 -193 41
-390 51 -607 32z m178 -59 c0 -31 -4 -40 -17 -41 -17 -1 -17 -2 0 -6 12 -3 17
-15 17 -39 l0 -34 59 0 c33 0 63 5 66 10 3 6 11 10 18 10 7 0 6 -6 -4 -15 -10
-10 -39 -16 -86 -18 -39 -1 -69 -5 -66 -9 2 -5 -2 -8 -11 -8 -8 0 -16 3 -19 8
-2 4 -3 2 -1 -4 1 -6 -16 -17 -39 -24 -23 -7 -56 -22 -73 -32 -62 -36 -127
-50 -264 -55 -86 -3 -131 -2 -125 4 9 9 121 47 127 43 2 -1 27 8 56 19 29 12
61 21 71 21 11 0 52 13 92 30 44 18 82 27 94 23 18 -5 18 -4 6 11 -18 21 -112
16 -234 -13 -48 -12 -109 -23 -135 -26 -26 -3 -87 -10 -137 -15 -358 -38 -360
-39 -391 -51 -15 -5 -29 -8 -31 -6 -4 5 81 47 137 67 19 7 40 17 46 22 13 10
236 84 274 92 14 2 57 12 95 21 39 9 81 18 95 19 14 2 68 8 120 15 93 11 147
16 223 19 37 2 37 2 37 -38z m127 -56 c-3 -3 -12 -4 -19 -1 -8 3 -5 6 6 6 11
1 17 -2 13 -5z m10 -30 c-3 -3 -12 -4 -19 -1 -8 3 -5 6 6 6 11 1 17 -2 13 -5z
m81 -31 c-10 -2 -28 -2 -40 0 -13 2 -5 4 17 4 22 1 32 -1 23 -4z"/>
<path d="M10015 9819 c-4 -6 -5 -12 -2 -15 2 -3 7 2 10 11 7 17 1 20 -8 4z"/>
<path d="M10170 9494 c-30 -8 -57 -18 -60 -22 -3 -4 -30 -16 -60 -26 -129 -44
-328 -156 -475 -269 -73 -57 -189 -161 -330 -298 -77 -75 -167 -162 -200 -193
-65 -61 -224 -173 -320 -226 -33 -18 -71 -41 -85 -50 -38 -27 -330 -167 -365
-176 -30 -7 -30 -7 18 47 57 65 149 177 196 239 130 171 464 526 594 630 68
54 74 75 20 65 -91 -16 -192 -62 -288 -130 -81 -57 -168 -153 -320 -350 -95
-123 -145 -175 -260 -273 -169 -144 -338 -246 -476 -287 -177 -54 -256 -108
-418 -285 -61 -68 -111 -127 -111 -131 0 -17 29 -9 143 41 63 28 128 50 145
50 27 0 53 -9 137 -45 102 -44 275 -57 394 -30 114 26 325 99 351 120 8 7 67
36 130 64 119 54 215 100 310 152 66 35 69 31 41 -72 -36 -133 -63 -201 -138
-347 -40 -78 -71 -148 -67 -153 8 -13 63 38 111 104 19 26 37 46 40 43 4 -3
26 -90 38 -149 5 -23 42 -138 65 -204 18 -48 18 -52 2 -57 -84 -23 -347 -37
-495 -25 -130 11 -167 21 -167 45 0 37 91 144 208 246 50 44 92 84 92 89 0 17
-27 21 -68 10 -67 -19 -149 -82 -332 -258 -97 -92 -187 -173 -200 -180 -67
-33 -114 -45 -220 -59 -294 -39 -423 -111 -725 -406 -120 -118 -148 -149 -137
-159 28 -29 254 33 347 95 29 19 79 65 111 102 128 149 185 190 296 214 51 12
69 11 145 -6 80 -17 129 -19 546 -17 418 1 470 3 584 23 69 12 127 19 129 17
3 -3 -27 -28 -66 -57 -38 -28 -70 -55 -70 -60 0 -23 34 -18 230 29 148 37 490
207 490 245 0 7 -19 26 -41 41 -93 61 -223 212 -297 345 -189 338 -144 798
115 1200 85 130 129 184 248 305 137 138 285 249 452 339 123 67 157 92 147
108 -7 11 -19 9 -84 -8z m-68 -74 c-18 -11 -35 -20 -38 -20 -8 0 -150 -96
-229 -155 -99 -75 -286 -261 -345 -345 -24 -35 -50 -69 -57 -76 -32 -31 -147
-245 -196 -363 -48 -115 -81 -295 -81 -441 0 -221 44 -374 157 -540 91 -135
155 -205 266 -291 l34 -27 -27 -18 c-152 -99 -433 -212 -568 -229 -23 -3 -46
-8 -52 -11 -16 -8 22 23 98 81 100 76 88 82 -84 42 -111 -26 -120 -27 -745
-43 -240 -6 -275 -4 -440 24 -73 13 -167 5 -228 -18 -59 -22 -92 -51 -247
-216 -39 -41 -85 -79 -115 -93 -49 -24 -58 -28 -120 -50 -36 -12 -156 -34
-161 -28 -8 7 355 347 371 347 3 0 15 8 26 18 32 31 192 106 248 117 38 8 239
43 286 50 81 11 145 53 261 169 203 203 265 256 344 294 37 18 80 32 80 27 0
-3 -21 -24 -47 -47 -102 -90 -219 -215 -237 -251 -16 -36 -16 -40 -1 -57 33
-36 99 -45 340 -45 238 0 342 12 367 42 10 12 8 28 -10 77 -12 34 -24 73 -27
87 -3 13 -9 35 -14 49 -21 54 -36 116 -48 210 -8 59 -28 73 -48 35 -13 -27
-75 -115 -80 -115 -2 0 28 65 66 144 38 80 69 150 69 157 0 6 11 43 25 81 32
89 42 166 23 173 -7 3 -68 -24 -135 -60 -117 -63 -403 -195 -423 -195 -6 0
-10 -3 -10 -7 0 -10 -49 -33 -70 -33 -9 0 -20 -4 -26 -9 -5 -5 -61 -24 -124
-41 -100 -28 -129 -32 -229 -31 -127 1 -160 8 -276 54 -44 17 -91 32 -105 32
-14 0 -61 -15 -105 -33 -148 -62 -148 -62 -85 6 22 24 40 46 40 49 0 4 33 37
73 74 83 78 188 142 267 163 260 67 606 325 821 610 40 55 93 120 117 146 23
26 42 51 42 57 0 9 90 92 129 120 11 7 43 25 73 40 29 14 55 29 58 32 4 5 44
20 130 49 8 2 -16 -24 -55 -59 -170 -153 -384 -389 -615 -677 -128 -160 -175
-213 -225 -251 -47 -35 -14 -44 54 -14 141 64 404 196 481 243 47 29 100 61
118 71 74 43 127 88 297 249 60 58 131 123 158 145 26 22 47 45 47 51 0 10
141 134 215 188 100 74 211 149 253 172 26 14 54 29 62 34 28 16 124 60 131
60 4 0 20 5 36 12 15 6 31 12 35 12 3 1 9 3 12 6 3 3 15 6 27 7 19 2 18 -1 -9
-17z"/>
<path d="M6979 8231 c-124 -79 -426 -236 -569 -296 -36 -15 -67 -31 -70 -35
-16 -25 -1207 -418 -1440 -475 -497 -122 -626 -160 -810 -237 -194 -82 -576
-284 -630 -333 -14 -13 -65 -47 -115 -77 -330 -200 -689 -496 -863 -713 -31
-38 -59 -72 -62 -75 -40 -31 -230 -380 -230 -421 0 -34 15 -20 47 44 57 116
184 278 293 376 184 165 418 336 665 484 208 125 636 347 669 347 7 0 25 9 40
21 14 11 68 38 119 60 50 22 101 44 112 49 29 14 302 119 350 134 22 7 96 34
165 59 158 57 398 135 560 181 304 87 520 154 695 214 55 18 114 38 130 42 17
5 63 21 104 35 79 27 97 28 58 2 -13 -9 -32 -24 -42 -34 -19 -19 -100 -73
-200 -133 -31 -19 -80 -50 -109 -69 -56 -36 -454 -241 -553 -285 -60 -26 -73
-38 -55 -50 16 -10 251 57 402 114 316 120 522 217 675 317 111 73 154 115
227 219 31 44 62 87 70 95 8 8 48 57 89 109 42 53 132 147 200 210 68 63 127
120 132 126 15 25 -11 23 -54 -5z m-174 -194 c-129 -131 -256 -283 -305 -365
-21 -35 -96 -112 -108 -112 -4 0 -19 -11 -33 -24 -32 -30 -168 -107 -191 -109
-9 -1 -15 -3 -13 -6 8 -7 -56 -42 -66 -36 -5 4 -9 2 -9 -3 0 -4 -19 -19 -41
-32 -34 -18 -46 -21 -60 -12 -15 10 -17 9 -12 -5 4 -10 2 -14 -4 -10 -6 4 -13
15 -16 26 -3 14 0 17 14 14 11 -3 19 -9 19 -14 0 -5 4 -9 9 -9 6 0 9 9 8 19 0
10 -7 17 -13 14 -7 -2 -24 2 -38 9 l-26 13 22 14 c18 11 20 11 15 -3 -4 -10
-1 -16 9 -16 8 0 12 5 9 10 -9 14 8 12 25 -2 12 -11 12 -10 2 4 -15 18 0 34
21 22 10 -6 10 -4 0 7 -10 10 -16 10 -25 1 -7 -7 -16 -12 -22 -12 -5 0 5 11
24 25 19 14 40 23 48 20 7 -2 11 -1 8 3 -9 14 55 58 77 54 4 -1 7 5 7 13 0 8
10 20 23 26 12 7 24 15 27 18 3 4 26 24 53 45 26 21 47 42 47 46 0 13 -32 21
-44 12 -14 -11 -65 -26 -88 -25 -10 0 -16 -3 -13 -7 3 -5 -78 -35 -125 -46 -3
0 -16 -5 -30 -11 -47 -19 -55 -20 -72 -11 -14 7 -16 5 -11 -8 4 -11 3 -15 -5
-10 -6 3 -13 2 -17 -4 -11 -17 -37 -11 -33 8 2 10 11 16 21 14 25 -4 21 17 -8
44 -28 26 -37 76 -9 54 12 -11 18 -10 32 3 9 10 11 17 5 17 -6 0 -14 -5 -16
-10 -3 -6 -5 -5 -3 1 2 13 191 80 200 71 3 -3 6 -1 6 5 0 5 6 10 13 10 6 1 48
15 92 31 44 17 110 42 147 55 37 14 73 31 80 36 7 6 90 49 183 96 94 46 208
106 255 134 47 27 87 50 90 50 2 1 -59 -63 -135 -142z m-1045 -381 c0 -3 -4
-8 -10 -11 -5 -3 -10 -1 -10 4 0 6 5 11 10 11 6 0 10 -2 10 -4z m-43 -38 c-3
-8 -6 -5 -6 6 -1 11 2 17 5 13 3 -3 4 -12 1 -19z m-57 -21 c0 -5 -4 -5 -10 -2
-5 3 -10 14 -10 23 0 15 2 15 10 2 5 -8 10 -19 10 -23z m161 6 c-8 -15 -10
-15 -11 -2 0 17 10 32 18 25 2 -3 -1 -13 -7 -23z m-61 3 c0 -2 -9 -6 -20 -9
-11 -3 -18 -1 -14 4 5 9 34 13 34 5z m75 -36 c3 -5 -1 -10 -9 -10 -9 0 -13 -6
-10 -14 3 -8 -3 -16 -15 -19 -12 -3 -21 -1 -21 4 0 5 5 9 10 9 6 0 10 9 10 20
0 21 24 28 35 10z m97 -217 c7 -9 7 -17 -2 -28 -7 -8 -9 -15 -4 -15 5 -1 -4
-7 -21 -14 -30 -13 -45 -12 -45 4 0 4 9 6 20 3 11 -3 20 0 20 6 0 6 -5 11 -11
11 -5 0 -7 5 -4 10 5 8 11 8 19 1 7 -6 16 -8 19 -4 8 7 -23 32 -41 33 -7 0
-10 -5 -6 -12 4 -7 3 -8 -5 -4 -6 4 -9 12 -6 17 8 12 54 7 67 -8z m-96 -43
c24 0 16 -15 -8 -15 -13 -1 -34 -4 -48 -8 -20 -6 -20 -4 4 7 16 7 25 15 20 18
-5 3 -3 3 4 1 8 -1 20 -3 28 -3z m-89 -35 c0 -8 -4 -12 -9 -9 -5 3 -6 10 -3
15 9 13 12 11 12 -6z m103 -2 c-8 -3 -20 -10 -27 -15 -7 -6 -14 -5 -19 3 -4 7
-3 9 4 5 6 -3 13 -2 17 4 3 5 14 10 23 9 14 0 14 -2 2 -6z"/>
<path d="M6140 7770 c0 -5 5 -10 11 -10 5 0 7 5 4 10 -3 6 -8 10 -11 10 -2 0
-4 -4 -4 -10z"/>
<path d="M5983 7723 c-19 -7 -15 -33 5 -32 11 0 12 2 4 6 -10 4 -10 8 -1 19
12 15 11 15 -8 7z"/>
<path d="M5916 7694 c-8 -21 -8 -21 8 -21 8 0 12 6 9 13 -2 7 4 14 14 17 15 4
15 5 -3 6 -12 0 -25 -6 -28 -15z"/>
<path d="M6106 7653 c-6 -14 -5 -15 5 -6 7 7 10 15 7 18 -3 3 -9 -2 -12 -12z"/>
<path d="M6005 7650 c-3 -6 1 -7 9 -4 18 7 21 14 7 14 -6 0 -13 -4 -16 -10z"/>
<path d="M6160 7541 c0 -10 19 -25 25 -20 1 2 -3 10 -11 17 -8 7 -14 8 -14 3z"/>
<path d="M6065 7450 c-3 -5 -1 -10 4 -10 6 0 11 5 11 10 0 6 -2 10 -4 10 -3 0
-8 -4 -11 -10z"/>
<path d="M6025 7380 c-10 -11 -14 -20 -8 -20 5 0 18 9 28 20 10 11 14 20 8 20
-5 0 -18 -9 -28 -20z"/>
<path d="M7184 8017 c-87 -57 -142 -97 -188 -139 -17 -16 -33 -28 -37 -28 -19
0 -152 -119 -284 -254 -82 -84 -181 -177 -220 -205 -42 -31 -184 -109 -350
-192 -318 -158 -495 -257 -495 -276 0 -18 13 -16 83 11 306 120 507 183 507
158 0 -13 -85 -74 -148 -106 -26 -13 -91 -41 -143 -61 -127 -49 -173 -68 -179
-75 -14 -18 -339 -166 -426 -196 -120 -40 -185 -43 -298 -14 -109 29 -202 78
-183 96 15 15 219 46 322 49 69 2 121 8 123 13 5 17 -31 31 -102 38 -37 4 -69
11 -72 15 -3 5 -45 9 -93 9 -168 0 -341 19 -425 47 -61 20 -91 24 -136 20 -61
-5 -260 -65 -260 -78 0 -4 -14 -11 -32 -14 -51 -12 -118 -43 -118 -56 0 -8 16
-10 54 -5 110 13 343 -25 453 -74 51 -23 132 -77 155 -105 20 -23 23 -45 8
-45 -19 0 -113 -94 -127 -127 -7 -18 -18 -68 -24 -110 -6 -43 -18 -90 -26
-104 -39 -66 -190 -92 -281 -48 -34 17 -49 32 -64 66 -23 52 -25 129 -4 196 8
26 10 49 5 52 -4 3 -22 -13 -38 -36 -55 -75 -124 -149 -159 -170 -51 -30 -118
-23 -146 14 -26 35 -27 131 -3 220 19 72 5 76 -44 11 -71 -95 -209 -188 -209
-141 0 50 140 248 206 290 79 52 11 46 -100 -7 -100 -48 -196 -139 -238 -223
-28 -57 -32 -76 -33 -145 0 -77 1 -80 33 -109 36 -32 66 -36 138 -18 25 6 47
10 49 7 3 -2 -4 -28 -15 -56 -11 -29 -21 -69 -21 -90 -3 -79 54 -161 140 -200
20 -9 39 -21 43 -27 11 -15 170 -13 188 3 8 7 34 26 57 42 23 16 61 53 84 82
22 29 45 54 49 56 4 2 25 -12 45 -31 88 -81 229 -75 382 14 75 44 286 255 359
359 l56 80 31 -26 c80 -68 162 -71 335 -15 147 49 174 62 334 168 141 93 244
139 391 173 98 23 120 22 98 -4 -6 -8 -16 -42 -22 -76 -9 -56 -8 -66 15 -116
47 -103 120 -169 254 -231 76 -35 248 -44 338 -18 79 23 160 66 218 119 66 59
53 73 -32 34 -89 -40 -217 -78 -263 -78 -54 0 -63 21 -45 107 17 84 8 99 -36
53 -50 -50 -108 -90 -134 -90 -51 0 -37 45 26 85 59 37 51 46 -33 39 -93 -8
-117 3 -117 53 0 29 8 43 39 74 22 20 63 50 91 65 28 15 49 32 47 38 -4 13
-46 23 -99 25 -21 0 -38 4 -38 9 1 11 51 64 95 98 43 34 127 74 154 74 28 0
158 67 237 121 77 54 137 113 156 155 19 41 2 38 -64 -13 -89 -68 -192 -119
-273 -136 -38 -8 -71 -10 -73 -6 -6 14 88 190 146 277 50 74 317 353 381 398
15 11 19 20 13 26 -9 9 -85 -26 -152 -72 -31 -20 -140 -81 -140 -78 0 2 86 91
191 198 105 107 195 203 200 212 18 33 -9 26 -87 -25z m-72 -114 c-98 -107
-300 -306 -345 -340 -16 -12 -26 -26 -23 -32 3 -5 0 -12 -6 -15 -7 -3 -2 -3
11 0 24 6 113 63 119 77 2 4 10 7 18 7 8 0 14 3 14 8 0 4 21 18 48 32 26 13
49 27 52 30 10 11 62 41 65 38 2 -2 -54 -62 -124 -133 -115 -118 -197 -216
-215 -255 -3 -8 -15 -28 -25 -45 -11 -16 -40 -70 -65 -119 -63 -125 -49 -136
114 -84 59 19 185 86 235 125 11 9 -6 -9 -38 -39 -74 -70 -270 -178 -323 -178
-23 0 -96 -36 -122 -60 -13 -12 -29 -19 -37 -16 -8 3 -14 2 -14 -2 4 -23 -3
-34 -17 -28 -8 3 -12 2 -9 -4 3 -6 2 -10 -4 -10 -5 0 -11 6 -14 13 -2 6 -3 4
-1 -6 2 -13 -2 -17 -12 -13 -37 15 -46 16 -21 1 15 -9 32 -13 37 -10 20 13 9
-7 -17 -30 -33 -29 -41 -31 -39 -9 0 9 -5 18 -12 20 -7 1 -8 0 -2 -3 16 -8 12
-23 -7 -24 -14 0 -15 -2 -3 -6 8 -4 20 -13 25 -20 6 -8 19 -15 30 -17 10 -1
21 -9 23 -16 3 -8 0 -10 -8 -5 -9 5 -11 4 -6 -3 10 -17 26 -15 26 3 0 10 11
15 35 15 43 0 44 -5 5 -25 -16 -8 -46 -29 -65 -46 -29 -26 -38 -29 -50 -19 -8
7 -15 9 -16 4 -4 -32 0 -116 5 -121 10 -10 7 -25 -4 -18 -6 3 -7 -1 -3 -10 4
-13 8 -14 14 -4 4 8 11 10 14 7 4 -4 0 -17 -9 -30 -9 -12 -16 -20 -17 -18 -5
32 -10 44 -23 59 -9 10 -16 35 -16 59 0 36 -3 42 -21 42 -19 0 -21 5 -17 44 3
43 2 44 -16 28 -15 -13 -17 -13 -10 -2 5 8 9 22 10 30 3 49 5 52 19 46 17 -6
18 -4 9 18 -8 20 -24 21 -24 1 0 -9 -6 -12 -15 -9 -8 4 -15 2 -15 -4 0 -6 6
-12 13 -15 6 -2 8 -8 4 -13 -14 -14 -26 17 -20 53 4 21 2 33 -6 33 -15 0 -14
27 2 33 8 3 5 12 -11 28 -19 20 -24 22 -32 9 -11 -17 -19 -11 -25 19 -3 18 1
21 26 21 16 0 29 4 29 9 0 15 -61 10 -67 -5 -4 -10 -10 -11 -23 -4 -25 14 -30
13 -24 -5 4 -8 4 -15 1 -15 -3 0 -7 7 -11 15 -3 10 6 20 27 31 30 16 31 16 18
1 -8 -10 -9 -17 -3 -17 11 0 27 19 27 33 0 4 4 7 10 6 5 0 12 8 16 18 4 12 16
18 35 18 21 0 29 5 28 18 -1 9 1 17 5 17 4 0 7 15 6 33 0 28 -3 32 -25 31 -33
-2 -123 -24 -170 -42 -8 -3 -20 -6 -26 -7 -6 0 -19 -6 -28 -14 -31 -26 -16 2
20 35 35 33 51 43 39 25 -9 -15 32 -23 55 -11 28 15 25 21 -6 10 -33 -13 -34
-13 -34 8 0 14 2 15 10 2 8 -12 10 -12 16 3 8 22 141 90 156 81 6 -4 8 -3 5 3
-10 16 25 26 36 11 6 -9 7 -8 3 4 -3 11 2 19 17 24 12 4 24 6 26 5 2 -2 7 1
10 7 3 5 33 26 66 47 33 21 65 45 72 54 7 9 13 13 13 8 0 -9 210 199 260 258
40 46 155 142 247 203 33 23 63 46 65 51 3 9 127 101 137 101 2 0 -37 -44 -87
-97z m-1154 -817 c-10 -7 -18 -18 -18 -25 0 -6 -4 -11 -10 -11 -16 0 -7 24 15
37 27 16 34 16 13 -1z m-62 -44 c-18 -16 -18 -16 -6 6 6 13 14 21 18 18 3 -4
-2 -14 -12 -24z m-16 15 c0 -2 -10 -12 -22 -23 l-23 -19 19 23 c18 21 26 27
26 19z m115 -147 c3 -6 -1 -7 -9 -4 -18 7 -21 14 -7 14 6 0 13 -4 16 -10z
m-31 -27 c5 -12 3 -13 -7 -5 -7 6 -23 10 -36 7 -12 -2 -19 0 -16 6 4 5 11 7
16 4 5 -4 9 -2 9 4 0 15 27 2 34 -16z m206 -103 c0 -5 -2 -10 -4 -10 -3 0 -8
5 -11 10 -3 6 -1 10 4 10 6 0 11 -4 11 -10z m-27 -24 c3 -8 -2 -16 -14 -19
-10 -3 -19 -1 -19 4 0 5 6 9 13 9 8 0 7 4 -3 10 -13 8 -13 10 1 10 9 0 19 -6
22 -14z m57 0 c0 -2 -9 -6 -20 -9 -11 -3 -20 -1 -20 4 0 5 9 9 20 9 11 0 20
-2 20 -4z m-143 -32 c-3 -3 -12 -4 -19 -1 -8 3 -5 6 6 6 11 1 17 -2 13 -5z
m168 -65 c-10 -15 -25 -10 -19 6 4 8 10 12 15 9 5 -3 7 -10 4 -15z m125 -34
c0 -5 -5 -3 -10 5 -5 8 -10 20 -10 25 0 6 5 3 10 -5 5 -8 10 -19 10 -25z
m-119 -19 l-6 -31 -4 30 c-4 26 -6 23 -11 -20 l-7 -50 -1 52 c-2 44 1 52 16
50 14 -1 17 -7 13 -31z m-6 -76 c-3 -5 -12 -10 -18 -10 -7 0 -6 4 3 10 19 12
23 12 15 0z m5 -35 c7 -9 8 -15 2 -15 -5 0 -12 7 -16 15 -3 8 -4 15 -2 15 2 0
9 -7 16 -15z m235 -15 c-3 -5 -12 -7 -20 -3 -11 4 -13 1 -9 -11 5 -12 2 -15
-10 -10 -9 3 -13 11 -9 17 3 6 1 7 -5 3 -7 -4 -12 -2 -12 3 0 6 16 11 36 11
20 0 33 -4 29 -10z m-182 -60 c4 0 1 11 -8 23 -13 20 -13 24 0 24 8 0 12 -4
10 -8 -7 -10 21 -30 30 -21 4 4 5 0 3 -8 -3 -8 -11 -14 -18 -12 -6 1 -10 -3
-7 -10 2 -7 10 -12 16 -10 6 1 11 -3 11 -9 0 -5 4 -8 9 -5 15 10 40 -5 35 -19
-3 -7 0 -16 7 -21 9 -5 10 -2 6 9 -3 10 -2 17 3 17 14 0 19 -15 10 -30 -7 -11
-20 -5 -63 28 -30 23 -65 56 -77 74 l-22 33 24 -27 c13 -16 27 -28 31 -28z
m133 29 c18 -20 18 -21 -1 -35 -18 -14 -18 -14 3 -14 13 0 27 -11 36 -27 8
-16 15 -22 16 -15 0 7 14 12 35 12 20 0 34 5 33 11 -2 6 7 15 19 19 18 8 22 5
27 -24 4 -18 4 -42 0 -52 -5 -18 -5 -18 6 -1 9 14 9 30 2 60 -12 45 -10 52 18
67 17 9 19 8 13 -7 -3 -10 -11 -24 -16 -31 -7 -9 -5 -11 9 -5 15 5 17 4 8 -8
-13 -16 -11 -43 7 -76 9 -18 22 -23 63 -25 28 -2 63 3 78 10 15 7 37 14 48 15
11 1 20 5 20 9 0 4 8 8 18 8 9 0 36 9 60 20 57 26 45 9 -21 -28 -90 -50 -142
-62 -273 -63 -128 0 -143 4 -140 47 2 18 -1 31 -6 28 -5 -3 -7 -12 -4 -20 3
-9 -1 -14 -12 -14 -15 0 -15 -2 -2 -10 8 -5 11 -10 5 -10 -5 1 -19 7 -29 15
-10 8 -23 12 -29 8 -5 -3 -6 7 -2 26 4 20 3 31 -5 31 -6 0 -8 4 -5 10 3 6 -1
7 -9 4 -13 -5 -16 2 -16 33 0 58 14 67 46 32z"/>
<path d="M6152 7169 c3 -8 -2 -20 -11 -27 -14 -11 -13 -11 7 -2 24 12 28 25
11 36 -7 4 -10 1 -7 -7z"/>
<path d="M6025 7110 c3 -5 8 -10 11 -10 2 0 4 5 4 10 0 6 -5 10 -11 10 -5 0
-7 -4 -4 -10z"/>
<path d="M6350 6730 c-8 -15 -8 -20 3 -20 7 0 13 9 14 20 1 11 0 20 -2 20 -2
0 -9 -9 -15 -20z"/>
<path d="M6320 6706 c0 -2 8 -10 18 -17 15 -13 16 -12 3 4 -13 16 -21 21 -21
13z"/>
<path d="M6384 6702 c3 -5 0 -13 -6 -15 -9 -4 -10 -6 -1 -6 17 -1 25 16 12 25
-7 4 -9 3 -5 -4z"/>
<path d="M6335 6370 c3 -5 8 -10 11 -10 2 0 4 5 4 10 0 6 -5 10 -11 10 -5 0
-7 -4 -4 -10z"/>
<path d="M6420 6376 c0 -8 5 -18 10 -21 6 -3 10 3 10 14 0 12 -4 21 -10 21 -5
0 -10 -6 -10 -14z"/>
<path d="M6420 6329 c0 -5 9 -9 20 -9 11 0 20 2 20 4 0 2 -9 6 -20 9 -11 3
-20 1 -20 -4z"/>
<path d="M6508 6323 c6 -2 10 -9 7 -14 -4 -5 2 -6 12 -3 17 5 17 5 0 -9 -17
-14 -17 -15 6 -13 15 0 23 6 20 14 -6 13 -36 33 -50 31 -4 0 -2 -3 5 -6z"/>
<path d="M6630 6280 c0 -5 7 -7 15 -4 8 4 15 8 15 10 0 2 -7 4 -15 4 -8 0 -15
-4 -15 -10z"/>
<path d="M2334 6152 c-10 -7 -45 -49 -175 -210 -57 -70 -125 -169 -257 -371
-85 -130 -186 -332 -225 -449 -51 -156 -44 -228 45 -497 72 -218 151 -302 408
-436 47 -24 141 -81 209 -126 68 -46 130 -83 137 -83 18 0 12 10 -149 274 -31
52 -72 114 -90 138 -17 24 -48 66 -67 93 -19 28 -61 84 -94 125 -66 83 -126
203 -151 301 -25 97 -17 321 14 409 21 56 99 217 211 435 17 33 41 78 52 100
36 71 110 209 130 242 20 34 21 68 2 55z"/>
<path d="M2247 4534 c-12 -13 94 -198 215 -375 77 -113 87 -151 89 -354 0 -71
7 -161 15 -200 7 -38 23 -142 34 -230 37 -291 53 -365 80 -365 4 0 13 41 20
90 13 91 23 110 34 65 11 -43 32 -29 53 35 20 61 31 113 37 169 3 30 8 56 10
59 3 2 16 -18 29 -44 40 -81 61 -114 75 -114 6 0 13 1 14 3 0 1 4 67 7 147 l6
145 33 -70 c18 -38 37 -79 42 -90 5 -11 17 -45 26 -75 9 -30 18 -61 20 -68 2
-7 9 -10 15 -6 26 16 -7 381 -47 529 -9 33 -22 85 -29 115 -6 30 -16 55 -21
55 -5 0 -21 11 -34 23 -14 13 -42 32 -62 43 -20 10 -54 30 -75 45 -21 14 -90
52 -153 85 -63 33 -146 85 -185 116 -76 61 -170 165 -197 217 -19 36 -42 59
-51 50z"/>
</g>
</svg>
